<svg xmlns="http://www.w3.org/2000/svg" xmlns:xlink="http://www.w3.org/1999/xlink" width="64" zoomAndPan="magnify" viewBox="0 0 48 48" height="64" preserveAspectRatio="xMidYMid meet" version="1.0"><defs><g/></defs><g fill="#5e47d4" fill-opacity="1"><g transform="translate(2.877551, 37.165857)"><g><path d="M 21.109375 0.6875 C 16.785156 0.6875 13.300781 0.222656 10.65625 -0.703125 C 8.019531 -1.628906 6.007812 -2.90625 4.625 -4.53125 C 3.25 -6.15625 2.320312 -8.03125 1.84375 -10.15625 L 16.078125 -10.15625 C 17.128906 -8.632812 18.804688 -7.875 21.109375 -7.875 C 23.410156 -7.875 25.085938 -8.632812 26.140625 -10.15625 C 26.222656 -10.300781 26.265625 -10.429688 26.265625 -10.546875 C 26.265625 -10.953125 25.734375 -11.253906 24.671875 -11.453125 C 23.617188 -11.648438 22.035156 -11.800781 19.921875 -11.90625 C 17.265625 -12.03125 14.472656 -12.3125 11.546875 -12.75 C 5.035156 -13.757812 1.78125 -16.378906 1.78125 -20.609375 C 1.78125 -20.972656 1.800781 -21.351562 1.84375 -21.75 C 2.320312 -23.875 3.25 -25.75 4.625 -27.375 C 6.007812 -29 8.019531 -30.273438 10.65625 -31.203125 C 13.300781 -32.128906 16.785156 -32.59375 21.109375 -32.59375 C 25.421875 -32.59375 28.898438 -32.128906 31.546875 -31.203125 C 34.191406 -30.273438 36.203125 -29 37.578125 -27.375 C 38.960938 -25.75 39.890625 -23.875 40.359375 -21.75 L 26.140625 -21.75 C 25.085938 -23.257812 23.410156 -24.015625 21.109375 -24.015625 C 18.804688 -24.015625 17.128906 -23.257812 16.078125 -21.75 C 16.003906 -21.632812 15.96875 -21.523438 15.96875 -21.421875 C 15.96875 -21.054688 16.472656 -20.789062 17.484375 -20.625 C 18.503906 -20.457031 20.003906 -20.3125 21.984375 -20.1875 C 23.960938 -20.070312 26.070312 -19.878906 28.3125 -19.609375 C 30.550781 -19.347656 32.644531 -18.882812 34.59375 -18.21875 C 36.550781 -17.5625 38.082031 -16.585938 39.1875 -15.296875 C 40.039062 -14.296875 40.46875 -13.035156 40.46875 -11.515625 C 40.46875 -11.078125 40.429688 -10.625 40.359375 -10.15625 C 39.890625 -8.03125 38.960938 -6.15625 37.578125 -4.53125 C 36.203125 -2.90625 34.191406 -1.628906 31.546875 -0.703125 C 28.898438 0.222656 25.421875 0.6875 21.109375 0.6875 Z M 21.109375 0.6875 "/></g></g></g></svg>